<mxfile host="app.diagrams.net" agent="Mozilla/5.0 (Macintosh; Intel Mac OS X 10_15_7) AppleWebKit/537.36 (KHTML, like Gecko) Chrome/129.0.0.0 Safari/537.36" version="24.7.16">
  <diagram name="Page-1" id="xOW2Yr25KGhknFhVnNgD">
    <mxGraphModel dx="2074" dy="676" grid="1" gridSize="10" guides="1" tooltips="1" connect="1" arrows="1" fold="1" page="1" pageScale="1" pageWidth="850" pageHeight="1100" math="0" shadow="0">
      <root>
        <mxCell id="0" />
        <mxCell id="1" parent="0" />
        <mxCell id="cefyBClC8OjnCOKbiYOL-17" value="" style="rounded=0;whiteSpace=wrap;html=1;fillColor=#f8cecc;strokeColor=#b85450;strokeWidth=2;fontSize=26;" vertex="1" parent="1">
          <mxGeometry y="40" width="1160" height="240" as="geometry" />
        </mxCell>
        <mxCell id="cefyBClC8OjnCOKbiYOL-3" value="" style="rounded=0;whiteSpace=wrap;html=1;fillColor=#d5e8d4;strokeColor=#82b366;strokeWidth=2;fontSize=26;" vertex="1" parent="1">
          <mxGeometry x="40" y="80" width="240" height="160" as="geometry" />
        </mxCell>
        <mxCell id="cefyBClC8OjnCOKbiYOL-1" value="60" style="rounded=0;whiteSpace=wrap;html=1;strokeWidth=2;fontSize=26;" vertex="1" parent="1">
          <mxGeometry x="80" y="120" width="80" height="70" as="geometry" />
        </mxCell>
        <mxCell id="cefyBClC8OjnCOKbiYOL-2" value="" style="rounded=0;whiteSpace=wrap;html=1;fillColor=#dae8fc;strokeColor=#6c8ebf;strokeWidth=2;fontSize=26;" vertex="1" parent="1">
          <mxGeometry x="160" y="120" width="80" height="70" as="geometry" />
        </mxCell>
        <mxCell id="cefyBClC8OjnCOKbiYOL-4" value="" style="endArrow=classic;html=1;rounded=0;strokeWidth=2;fontSize=26;" edge="1" parent="1">
          <mxGeometry width="50" height="50" relative="1" as="geometry">
            <mxPoint x="220" y="160" as="sourcePoint" />
            <mxPoint x="320" y="160" as="targetPoint" />
          </mxGeometry>
        </mxCell>
        <mxCell id="cefyBClC8OjnCOKbiYOL-5" value="" style="rounded=0;whiteSpace=wrap;html=1;fillColor=#d5e8d4;strokeColor=#82b366;strokeWidth=2;fontSize=26;" vertex="1" parent="1">
          <mxGeometry x="320" y="80" width="240" height="160" as="geometry" />
        </mxCell>
        <mxCell id="cefyBClC8OjnCOKbiYOL-6" value="10" style="rounded=0;whiteSpace=wrap;html=1;strokeWidth=2;fontSize=26;" vertex="1" parent="1">
          <mxGeometry x="360" y="120" width="80" height="70" as="geometry" />
        </mxCell>
        <mxCell id="cefyBClC8OjnCOKbiYOL-7" value="" style="rounded=0;whiteSpace=wrap;html=1;fillColor=#dae8fc;strokeColor=#6c8ebf;strokeWidth=2;fontSize=26;" vertex="1" parent="1">
          <mxGeometry x="440" y="120" width="80" height="70" as="geometry" />
        </mxCell>
        <mxCell id="cefyBClC8OjnCOKbiYOL-8" value="" style="endArrow=classic;html=1;rounded=0;strokeWidth=2;fontSize=26;" edge="1" parent="1">
          <mxGeometry width="50" height="50" relative="1" as="geometry">
            <mxPoint x="500" y="160" as="sourcePoint" />
            <mxPoint x="600" y="160" as="targetPoint" />
          </mxGeometry>
        </mxCell>
        <mxCell id="cefyBClC8OjnCOKbiYOL-9" value="" style="rounded=0;whiteSpace=wrap;html=1;fillColor=#d5e8d4;strokeColor=#82b366;strokeWidth=2;fontSize=26;" vertex="1" parent="1">
          <mxGeometry x="600" y="80" width="240" height="160" as="geometry" />
        </mxCell>
        <mxCell id="cefyBClC8OjnCOKbiYOL-10" value="70" style="rounded=0;whiteSpace=wrap;html=1;strokeWidth=2;fontSize=26;" vertex="1" parent="1">
          <mxGeometry x="640" y="120" width="80" height="70" as="geometry" />
        </mxCell>
        <mxCell id="cefyBClC8OjnCOKbiYOL-11" value="" style="rounded=0;whiteSpace=wrap;html=1;fillColor=#dae8fc;strokeColor=#6c8ebf;strokeWidth=2;fontSize=26;" vertex="1" parent="1">
          <mxGeometry x="720" y="120" width="80" height="70" as="geometry" />
        </mxCell>
        <mxCell id="cefyBClC8OjnCOKbiYOL-12" value="" style="endArrow=classic;html=1;rounded=0;strokeWidth=2;fontSize=26;" edge="1" parent="1">
          <mxGeometry width="50" height="50" relative="1" as="geometry">
            <mxPoint x="780" y="160" as="sourcePoint" />
            <mxPoint x="880" y="160" as="targetPoint" />
          </mxGeometry>
        </mxCell>
        <mxCell id="cefyBClC8OjnCOKbiYOL-13" value="" style="rounded=0;whiteSpace=wrap;html=1;fillColor=#d5e8d4;strokeColor=#82b366;strokeWidth=2;fontSize=26;" vertex="1" parent="1">
          <mxGeometry x="880" y="80" width="240" height="160" as="geometry" />
        </mxCell>
        <mxCell id="cefyBClC8OjnCOKbiYOL-14" value="40" style="rounded=0;whiteSpace=wrap;html=1;strokeWidth=2;fontSize=26;" vertex="1" parent="1">
          <mxGeometry x="920" y="120" width="80" height="70" as="geometry" />
        </mxCell>
        <mxCell id="cefyBClC8OjnCOKbiYOL-15" value="null" style="rounded=0;whiteSpace=wrap;html=1;fillColor=#dae8fc;strokeColor=#6c8ebf;strokeWidth=2;fontSize=26;" vertex="1" parent="1">
          <mxGeometry x="1000" y="120" width="80" height="70" as="geometry" />
        </mxCell>
        <mxCell id="cefyBClC8OjnCOKbiYOL-18" value="" style="rounded=0;whiteSpace=wrap;html=1;fillColor=#f8cecc;strokeColor=#b85450;strokeWidth=2;fontSize=26;" vertex="1" parent="1">
          <mxGeometry y="320" width="1160" height="240" as="geometry" />
        </mxCell>
        <mxCell id="cefyBClC8OjnCOKbiYOL-19" value="" style="rounded=0;whiteSpace=wrap;html=1;fillColor=#d5e8d4;strokeColor=#82b366;strokeWidth=2;fontSize=26;" vertex="1" parent="1">
          <mxGeometry x="40" y="360" width="240" height="160" as="geometry" />
        </mxCell>
        <mxCell id="cefyBClC8OjnCOKbiYOL-20" value="10" style="rounded=0;whiteSpace=wrap;html=1;strokeWidth=2;fontSize=26;" vertex="1" parent="1">
          <mxGeometry x="80" y="400" width="80" height="70" as="geometry" />
        </mxCell>
        <mxCell id="cefyBClC8OjnCOKbiYOL-21" value="" style="rounded=0;whiteSpace=wrap;html=1;fillColor=#dae8fc;strokeColor=#6c8ebf;strokeWidth=2;fontSize=26;" vertex="1" parent="1">
          <mxGeometry x="160" y="400" width="80" height="70" as="geometry" />
        </mxCell>
        <mxCell id="cefyBClC8OjnCOKbiYOL-22" value="" style="endArrow=classic;html=1;rounded=0;strokeWidth=2;fontSize=26;" edge="1" parent="1">
          <mxGeometry width="50" height="50" relative="1" as="geometry">
            <mxPoint x="220" y="440" as="sourcePoint" />
            <mxPoint x="320" y="440" as="targetPoint" />
          </mxGeometry>
        </mxCell>
        <mxCell id="cefyBClC8OjnCOKbiYOL-23" value="" style="rounded=0;whiteSpace=wrap;html=1;fillColor=#d5e8d4;strokeColor=#82b366;strokeWidth=2;fontSize=26;" vertex="1" parent="1">
          <mxGeometry x="320" y="360" width="240" height="160" as="geometry" />
        </mxCell>
        <mxCell id="cefyBClC8OjnCOKbiYOL-24" value="40" style="rounded=0;whiteSpace=wrap;html=1;strokeWidth=2;fontSize=26;" vertex="1" parent="1">
          <mxGeometry x="360" y="400" width="80" height="70" as="geometry" />
        </mxCell>
        <mxCell id="cefyBClC8OjnCOKbiYOL-25" value="" style="rounded=0;whiteSpace=wrap;html=1;fillColor=#dae8fc;strokeColor=#6c8ebf;strokeWidth=2;fontSize=26;" vertex="1" parent="1">
          <mxGeometry x="440" y="400" width="80" height="70" as="geometry" />
        </mxCell>
        <mxCell id="cefyBClC8OjnCOKbiYOL-26" value="" style="endArrow=classic;html=1;rounded=0;strokeWidth=2;fontSize=26;" edge="1" parent="1">
          <mxGeometry width="50" height="50" relative="1" as="geometry">
            <mxPoint x="500" y="440" as="sourcePoint" />
            <mxPoint x="600" y="440" as="targetPoint" />
          </mxGeometry>
        </mxCell>
        <mxCell id="cefyBClC8OjnCOKbiYOL-27" value="" style="rounded=0;whiteSpace=wrap;html=1;fillColor=#d5e8d4;strokeColor=#82b366;strokeWidth=2;fontSize=26;" vertex="1" parent="1">
          <mxGeometry x="600" y="360" width="240" height="160" as="geometry" />
        </mxCell>
        <mxCell id="cefyBClC8OjnCOKbiYOL-28" value="60" style="rounded=0;whiteSpace=wrap;html=1;strokeWidth=2;fontSize=26;" vertex="1" parent="1">
          <mxGeometry x="640" y="400" width="80" height="70" as="geometry" />
        </mxCell>
        <mxCell id="cefyBClC8OjnCOKbiYOL-29" value="" style="rounded=0;whiteSpace=wrap;html=1;fillColor=#dae8fc;strokeColor=#6c8ebf;strokeWidth=2;fontSize=26;" vertex="1" parent="1">
          <mxGeometry x="720" y="400" width="80" height="70" as="geometry" />
        </mxCell>
        <mxCell id="cefyBClC8OjnCOKbiYOL-30" value="" style="endArrow=classic;html=1;rounded=0;strokeWidth=2;fontSize=26;" edge="1" parent="1">
          <mxGeometry width="50" height="50" relative="1" as="geometry">
            <mxPoint x="780" y="440" as="sourcePoint" />
            <mxPoint x="880" y="440" as="targetPoint" />
          </mxGeometry>
        </mxCell>
        <mxCell id="cefyBClC8OjnCOKbiYOL-31" value="" style="rounded=0;whiteSpace=wrap;html=1;fillColor=#d5e8d4;strokeColor=#82b366;strokeWidth=2;fontSize=26;" vertex="1" parent="1">
          <mxGeometry x="880" y="360" width="240" height="160" as="geometry" />
        </mxCell>
        <mxCell id="cefyBClC8OjnCOKbiYOL-32" value="70" style="rounded=0;whiteSpace=wrap;html=1;strokeWidth=2;fontSize=26;" vertex="1" parent="1">
          <mxGeometry x="920" y="400" width="80" height="70" as="geometry" />
        </mxCell>
        <mxCell id="cefyBClC8OjnCOKbiYOL-33" value="null" style="rounded=0;whiteSpace=wrap;html=1;fillColor=#dae8fc;strokeColor=#6c8ebf;strokeWidth=2;fontSize=26;" vertex="1" parent="1">
          <mxGeometry x="1000" y="400" width="80" height="70" as="geometry" />
        </mxCell>
      </root>
    </mxGraphModel>
  </diagram>
</mxfile>
